inDegrees=no
num_controls=7
num_derivatives=13
num_iterations=175
num_multipliers=7
num_parameters=0
num_slacks=7
num_states=26
objective=5.354056
objective_accelerations=0.469394
objective_balance=0.111231
objective_effort=0.341929
objective_height=4.329002
objective_ligament=0.102501
solver_duration=2003.457276
status=Solve_Succeeded
success=true
DataType=double
version=3
OpenSimVersion=4.4-2022-07-23-0e9fedc
endheader
time	/jointset/ground_pelvis/pelvis_tilt/value	/jointset/ground_pelvis/pelvis_tx/value	/jointset/ground_pelvis/pelvis_ty/value	/jointset/hip_l/hip_flexion_l/value	/jointset/hip_l/hip_adduction_l/value	/jointset/hip_l/hip_rotation_l/value	/jointset/back/lumbar_extension/value	/jointset/patellofemoral_l/patellar_flexion_l/value	/jointset/knee_l/knee_flexion_l/value	/jointset/knee_l/knee_adduction_l/value	/jointset/knee_l/knee_rotation_l/value	/jointset/ankle_l/ankle_angle_l/value	/jointset/subtalar_l/subtalar_angle_l/value	/jointset/ground_pelvis/pelvis_tilt/speed	/jointset/ground_pelvis/pelvis_tx/speed	/jointset/ground_pelvis/pelvis_ty/speed	/jointset/hip_l/hip_flexion_l/speed	/jointset/hip_l/hip_adduction_l/speed	/jointset/hip_l/hip_rotation_l/speed	/jointset/back/lumbar_extension/speed	/jointset/patellofemoral_l/patellar_flexion_l/speed	/jointset/knee_l/knee_flexion_l/speed	/jointset/knee_l/knee_adduction_l/speed	/jointset/knee_l/knee_rotation_l/speed	/jointset/ankle_l/ankle_angle_l/speed	/jointset/subtalar_l/subtalar_angle_l/speed	/forceset/tau_hip_flexion_l	/forceset/tau_hip_adduction_l	/forceset/tau_hip_rotation_l	/forceset/tau_knee_flexion_l	/forceset/tau_ankle_angle_l	/forceset/tau_subtalar_angle_l	/forceset/tau_lumbar_extension	lambda_cid13_p0	lambda_cid13_p1	lambda_cid13_p2	lambda_cid13_p3	lambda_cid13_p4	lambda_cid13_p5	lambda_cid14_p0	/jointset/ground_pelvis/pelvis_tilt/accel	/jointset/ground_pelvis/pelvis_tx/accel	/jointset/ground_pelvis/pelvis_ty/accel	/jointset/hip_l/hip_flexion_l/accel	/jointset/hip_l/hip_adduction_l/accel	/jointset/hip_l/hip_rotation_l/accel	/jointset/back/lumbar_extension/accel	/jointset/patellofemoral_l/patellar_flexion_l/accel	/jointset/knee_l/knee_flexion_l/accel	/jointset/knee_l/knee_adduction_l/accel	/jointset/knee_l/knee_rotation_l/accel	/jointset/ankle_l/ankle_angle_l/accel	/jointset/subtalar_l/subtalar_angle_l/accel	gamma_cid13_p0	gamma_cid13_p1	gamma_cid13_p2	gamma_cid13_p3	gamma_cid13_p4	gamma_cid13_p5	gamma_cid14_p0
0.5	-0.3308597767856204	-0.004029714298605411	0.8006771753079704	1.026404067277529	-0.3052587520781475	-0.0495255510562582	-0.3044684109545772	0.6652769488456326	0.6652769488456141	-0.1704902446761478	0.1744919873484086	0.1417833829341518	-0.02247291496845507	-0.4381577904771368	-0.133047607118532	-0.3687554700457834	1.766374898488297	-0.03004595439289555	0.6090370221277948	-0.6380450916924368	1.722825153968564	1.722825153968559	-0.009642542399268643	0.0001564996907976861	0.4996423923417265	0.05054114899769645	-0.1831444026079264	0.0320285677066306	-0.02256695678650886	-0.2074971499939615	0.05318051089194375	0.04258015341344223	0.1807318590587099	-21.15797324563566	-18.70481091983487	7.053633499374813	3.910361097541892	-609.0548719406498	-59.54625252897277	-29.66712075580998	0.3537633092486263	0.3510354064924258	-0.3022833914304157	-1.059933743482735	0.5281823778907802	-0.3521328685950988	1.342233316550664	-1.055964275472293	-1.055964275472292	-0.03435082499688863	-0.02125942948245991	-0.3327869609554156	0.5088160055585094	-2.39164468134498e-07	-1.007111593109988e-06	1.230042724961225e-06	2.084532698774499e-08	-2.618459864609856e-07	-6.568524223276567e-07	-2.629854144640014e-07
0.51	-0.3352228496339688	-0.00534251811826831	0.7969751996952359	1.044011995537847	-0.3055340698622652	-0.04345300004355192	-0.3107815923572917	0.6824498371276975	0.682449837127694	-0.1705907804976095	0.1744930153695898	0.1467619798651872	-0.02194356806545035	-0.4344096993290518	-0.1295060912804916	-0.3715699098281153	1.754999535336019	-0.02503555842227197	0.6053802076531474	-0.6245410533714898	1.711536995236854	1.71153699523685	-0.0104480957576688	6.821025625066394e-05	0.4959991670365344	0.05530777798426718	-0.1888958285720001	0.0330040699627887	-0.02266223550819036	-0.2088806785864152	0.05028773784963332	0.04317756851887022	0.1854089924285164	-22.21470644706569	-18.69862223321685	6.960559091514428	4.290364667180456	-611.9710342658135	-59.20099731016386	-28.69145775366549	0.3923624399588367	0.3567820932383102	-0.260619074196394	-1.208058019023531	0.4846449137820624	-0.3866601583787467	1.362009412075672	-1.197511079598464	-1.197511079598225	-0.1012320820439801	-3.140424302852641e-05	-0.3917771219420615	0.4574860399921914	-2.811342138350314e-07	-8.190817279407332e-07	1.425418533437401e-06	7.038735764141131e-08	-2.851826059181593e-07	-6.120113276010136e-07	-2.78398990887165e-07
0.52	-0.3395470354863719	-0.006619692295395707	0.7932471607241656	1.061499826083044	-0.3057598483452462	-0.03741985805990498	-0.3169582293123577	0.6995033899409321	0.6995033899409455	-0.1706988867508062	0.1744936769556615	0.1517018071818395	-0.02136717493362294	-0.4303803912861063	-0.1259216786114314	-0.3739681417128972	1.74235535546682	-0.02013809416627433	0.6011552163193274	-0.6107362021621539	1.698958060202021	1.69895806020202	-0.0111566287473674	8.321266961466866e-05	0.4918884694657014	0.05995039476227186	-0.1946472545361337	0.03397957221888235	-0.02275751422980175	-0.210264207178903	0.04739496480729974	0.04377498362422058	0.1900861257982854	-23.27774927014971	-18.69502151846455	6.87211653265084	4.664307830217313	-615.0009730652663	-58.92996830449963	-27.70237747929503	0.4100066882209977	0.3596147726962401	-0.2190418119204189	-1.31369708686678	0.5055960349656299	-0.465768240429513	1.402395894228578	-1.314119536096653	-1.31411953609662	-0.01494675125654598	-0.0006010599003312715	-0.4262814140837995	0.484013563845285	-2.791535502888942e-07	-7.451181530882693e-07	1.402041840326702e-06	8.540183689101889e-08	-2.935981642688995e-07	-5.629129312627544e-07	-2.683605895090291e-07
0.53	-0.3438295490188126	-0.007860777061646042	0.789497311370097	1.078854730122855	-0.3059371831228	-0.03143146877048517	-0.3229951592513656	0.7164245145141469	0.7164245145141483	-0.1708136434263773	0.1744946568574296	0.1565982529454354	-0.02074493970065627	-0.4260751162912952	-0.1222842501765048	-0.3759244916097231	1.728399112292195	-0.01535052800602068	0.5964495057651031	-0.5965839847210925	1.685042153946735	1.685042153946736	-0.01178871632368694	0.000112610566100271	0.4873318507187709	0.06447333294229295	-0.2004687820244984	0.03479898475562301	-0.02283788302977587	-0.2118138348502359	0.04476599993468421	0.04424071558804758	0.1948540868744601	-24.27143882890221	-18.64435133697296	6.773858175489247	4.952887205939478	-618.2541280935982	-58.60620046287836	-26.70921269733469	0.4478389041359435	0.3674792054735405	-0.1724055586270804	-1.470574564186371	0.4619471655424996	-0.4841813293689889	1.431504807131817	-1.463978626663917	-1.463978626663413	-0.08647955997219067	0.004413936316956126	-0.4806878312663187	0.4328859402182914	-2.671405502294066e-07	-6.919248781917749e-07	1.339683099808172e-06	8.874023461995151e-08	-2.876079390098425e-07	-5.160193688701332e-07	-2.543999208141643e-07
